<svg width="46" height="46" viewBox="0 0 46 46" fill="none" xmlns="http://www.w3.org/2000/svg">
<circle cx="23" cy="23" r="23" fill="#092E20"/>
<g clip-path="url(#clip0)">
<path d="M22.792 10.4852C20.8513 11.6227 18.6518 12.9119 17.4733 15.0448C15.4263 18.7659 21.662 22.8249 21.9285 22.9959C21.9904 23.0356 22.0646 23.0554 22.1385 23.0554C22.217 23.0554 22.2956 23.0331 22.3594 22.9885C22.4832 22.9022 22.5183 22.7557 22.444 22.6363C22.4214 22.6001 20.1831 18.977 20.2663 16.3778C20.2957 15.4725 21.816 14.4456 23.4255 13.3583C24.8996 12.3625 26.5706 11.2338 27.5482 9.91341C29.6945 7.00703 27.309 4.14919 27.2847 4.12061C27.1899 4.00973 27.015 3.9696 26.8655 4.02422C26.7161 4.07918 26.6333 4.21379 26.6674 4.34688C26.6723 4.36582 27.1362 6.25569 25.8453 8.20278C25.3136 9.00737 24.1451 9.6922 22.792 10.4852Z" fill="#DB380E"/>
<path d="M30.9684 11.7668C31.1053 11.6809 31.1455 11.5241 31.0627 11.399C30.9798 11.2739 30.7993 11.2188 30.639 11.2695C30.3093 11.3739 22.5658 13.8613 22.5658 16.8668C22.5658 18.9385 23.6278 20.033 24.4032 20.8322C24.7074 21.1457 24.97 21.4164 25.0565 21.6476C25.3002 22.3136 24.723 23.5174 24.4803 23.9251C24.4103 24.0423 24.4446 24.1843 24.5636 24.2699C24.6279 24.3162 24.7082 24.3397 24.7886 24.3397C24.857 24.3397 24.9258 24.3228 24.9852 24.2883C25.1183 24.2112 28.2391 22.3725 27.6794 20.1571C27.4709 19.3151 26.9743 18.6998 26.5362 18.1569C25.8575 17.3158 25.3673 16.7082 26.111 15.586C26.9823 14.277 30.9284 11.7917 30.9684 11.7668Z" fill="#DB380E"/>
<path d="M10.8117 24.3872C10.6789 24.7184 10.7416 25.047 10.9927 25.3376C11.8321 26.3088 14.8055 26.8435 19.3655 26.8435C19.3658 26.8435 19.3659 26.8435 19.3661 26.8435C19.9839 26.8435 20.6363 26.8334 21.3044 26.8134C28.595 26.596 31.299 24.7033 31.4106 24.6228C31.5322 24.5351 31.5647 24.3891 31.4891 24.2709C31.4135 24.1529 31.2505 24.0936 31.0947 24.1293C28.527 24.7135 23.7325 24.9209 20.407 24.9209C16.6858 24.9209 14.7907 24.6975 14.3267 24.5326C14.5648 24.2601 16.0331 23.7737 17.8527 23.4754C18.0266 23.447 18.1461 23.3132 18.1289 23.1662C18.1117 23.0192 17.9635 22.9071 17.7862 22.9071C16.7197 22.9071 11.3708 22.9785 10.8117 24.3872Z" fill="#73A1FB"/>
<path d="M35.2074 22.4377C33.7036 22.4377 32.2777 23.0658 32.2176 23.0924C32.0786 23.1545 32.008 23.2874 32.0462 23.4151C32.0845 23.5426 32.2221 23.6322 32.3798 23.6323C32.4117 23.6323 35.5874 23.654 35.875 25.166C36.1298 26.4705 32.8703 28.584 31.5928 29.2884C31.4548 29.3645 31.4013 29.5115 31.4653 29.6386C31.5199 29.7468 31.6463 29.8145 31.7826 29.8145C31.8064 29.8145 31.8305 29.8125 31.8545 29.8082C32.1577 29.7541 39.2706 28.4479 38.5186 24.9968C38.0598 22.8817 36.4646 22.4377 35.2074 22.4377Z" fill="#73A1FB"/>
<path d="M30.3293 28.8661C30.3541 28.7556 30.2989 28.6431 30.1885 28.5785L28.483 27.583C28.3998 27.5345 28.2947 27.5192 28.1971 27.5407C28.1793 27.5445 26.3958 27.9352 23.8064 28.1748C22.7787 28.2709 21.6276 28.3216 20.4774 28.3216C17.8886 28.3216 16.196 28.0681 15.9495 27.8822C15.9168 27.83 15.9271 27.8063 15.933 27.7931C15.9778 27.6893 16.2178 27.566 16.3725 27.5172C16.5434 27.4645 16.6355 27.3098 16.5823 27.1646C16.5293 27.0192 16.3496 26.9337 16.1723 26.9692C14.4614 27.3132 13.6248 27.7944 13.6857 28.3991C13.7938 29.4714 16.7742 30.0218 19.2938 30.1673C19.6561 30.1879 20.048 30.1984 20.4582 30.1984C20.4585 30.1984 20.4587 30.1984 20.4589 30.1984C24.6486 30.1984 30.0197 29.1029 30.0733 29.0918C30.2045 29.0651 30.3045 28.9768 30.3293 28.8661Z" fill="#73A1FB"/>
<path d="M17.4713 31.1673C17.6005 31.0973 17.6578 30.9642 17.6119 30.8417C17.5662 30.7191 17.4287 30.6386 17.2741 30.6403C17.0449 30.6453 15.0307 30.7211 14.8896 31.7898C14.847 32.1091 14.9567 32.401 15.216 32.657C15.9392 33.3712 17.8914 33.7957 21.1831 33.9547C21.5725 33.9742 21.9681 33.984 22.3589 33.984C26.5438 33.984 29.3622 32.8921 29.4803 32.8456C29.5947 32.8005 29.6702 32.7067 29.6769 32.6015C29.6836 32.4962 29.6205 32.3963 29.5126 32.3413L27.3572 31.2448C27.2824 31.2068 27.1929 31.1942 27.1076 31.2088C27.094 31.2112 25.7254 31.4477 23.6601 31.6813C23.2693 31.7256 22.7799 31.7481 22.2057 31.7481C20.1426 31.7481 17.8479 31.4672 17.4078 31.2833C17.4014 31.249 17.4095 31.2053 17.4713 31.1673Z" fill="#73A1FB"/>
<path d="M20.4085 37.2808C29.9943 37.274 35.139 35.8534 36.1301 34.9595C36.481 34.6432 36.5189 34.3438 36.4891 34.1482C36.4155 33.667 35.8894 33.3724 35.8297 33.3404C35.6859 33.2633 35.4928 33.2834 35.3805 33.3913C35.2686 33.4992 35.2659 33.6568 35.3783 33.7646C35.4388 33.8294 35.4737 33.9379 35.2969 34.0854C34.9007 34.3937 30.9046 35.3298 24.2509 35.611C23.3394 35.6505 22.3835 35.6706 21.4097 35.6707C15.4523 35.6707 11.0924 34.9906 10.52 34.5944C10.7406 34.3303 12.2828 33.9083 13.9229 33.6696C14.1077 33.6427 14.2326 33.4976 14.2039 33.3431C14.1753 33.1887 14.0044 33.0824 13.8176 33.1026C13.7714 33.1078 13.6144 33.1156 13.4326 33.1249C10.7265 33.2626 7.59939 33.5694 7.43623 34.7314C7.38669 35.0854 7.51293 35.4068 7.81161 35.6865C8.54243 36.3708 10.643 37.2806 20.4082 37.2806C20.4084 37.2808 20.4084 37.2808 20.4085 37.2808Z" fill="#73A1FB"/>
<path d="M38.0129 35.2114C37.8774 35.1592 37.7173 35.1855 37.6162 35.2765C37.6022 35.2891 36.161 36.5449 31.8277 37.2824C30.1688 37.5594 27.0549 37.6999 22.5724 37.6999C18.0816 37.6999 13.8084 37.5526 13.7658 37.5511C13.5873 37.5439 13.4346 37.652 13.4103 37.7984C13.386 37.9447 13.4992 38.0827 13.6715 38.1169C13.716 38.1256 18.1943 38.9999 24.3175 38.9999C27.2543 38.9999 30.1121 38.8012 32.8117 38.409C37.8452 37.6736 38.1977 35.5937 38.2102 35.5055C38.2278 35.3823 38.1482 35.2636 38.0129 35.2114Z" fill="#73A1FB"/>
</g>
<defs>
<clipPath id="clip0">
<rect width="42" height="35" fill="white" transform="translate(2 4)"/>
</clipPath>
</defs>
</svg>
