<svg width="46" height="46" viewBox="0 0 46 46" fill="none" xmlns="http://www.w3.org/2000/svg">
<circle cx="23" cy="23" r="23" fill="#092E20"/>
<path d="M36.4336 14.8359H29.6797V21.5156H13.3516V29.6797C13.3516 30.4996 14.0161 31.1641 14.8359 31.1641V36.4336C14.8359 39.5079 17.3281 42 20.4023 42H25.5977C28.6719 42 31.1641 39.5079 31.1641 36.4336V33.3906H24.516C23.9164 33.3906 23.4007 32.9299 23.3723 32.3313C23.3421 31.6917 23.8518 31.1641 24.4844 31.1641H36.4336C39.5079 31.1641 42 28.6719 42 25.5977V20.4023C42 17.3281 39.5079 14.8359 36.4336 14.8359Z" fill="#FEEF55"/>
<path d="M36.4336 14.8359H29.6797V21.5156H23V42H25.5977C28.6719 42 31.1641 39.5079 31.1641 36.4336V33.3906H24.516C23.9164 33.3906 23.4007 32.9299 23.3723 32.3313C23.3421 31.6917 23.8518 31.1641 24.4844 31.1641H36.4336C39.5079 31.1641 42 28.6719 42 25.5977V20.4023C42 17.3281 39.5079 14.8359 36.4336 14.8359Z" fill="#FEDC00"/>
<path d="M17.8047 23H28.1953C29.8348 23 31.1641 21.6707 31.1641 20.0312V9.56641C31.1641 6.49706 28.667 4 25.5977 4H20.4023C17.333 4 14.8359 6.49706 14.8359 9.56641V12.6094H21.5156C22.1305 12.6094 22.6289 13.1077 22.6289 13.7227C22.6289 14.3376 22.1305 14.8359 21.5156 14.8359H9.56641C6.49706 14.8359 4 17.333 4 20.4023V25.5977C4 28.667 6.49706 31.1641 9.56641 31.1641H14.8359V25.9688C14.8359 24.3293 16.1652 23 17.8047 23Z" fill="#78E0EA"/>
<path d="M25.5977 4H23V23H28.1953C29.8348 23 31.1641 21.6707 31.1641 20.0312V9.56641C31.1641 6.49706 28.667 4 25.5977 4Z" fill="#3CCCDD"/>
<path d="M21.5156 8.52734C21.5156 9.14226 21.0173 9.64062 20.4023 9.64062C19.7874 9.64062 19.2891 9.14226 19.2891 8.52734C19.2891 7.91243 19.7874 7.41406 20.4023 7.41406C21.0173 7.41406 21.5156 7.91243 21.5156 8.52734Z" fill="#5A5A6E"/>
<path d="M26.7109 37.4727C26.7109 38.0876 26.2126 38.5859 25.5977 38.5859C24.9827 38.5859 24.4844 38.0876 24.4844 37.4727C24.4844 36.8577 24.9827 36.3594 25.5977 36.3594C26.2126 36.3594 26.7109 36.8577 26.7109 37.4727Z" fill="#46465A"/>
</svg>
